# xmcd
#
# Track frame offsets:
#	150
#	12770
#	24773
#	36580
#	48983
#	61163
#	73113
#	84557
#	97797
#	110714
#	122421
#	135182
#	146700
#	158923
#	170996
#	183744
#	195249
#	206789
#	218691
#	230679
#	244234
#	256719
#	268075
#	280547
#	292285
#
# Disc length: 4071 seconds
# Revision: 1
# Processed by: cddbd v1.5.2PL0 Copyright (c) Steve Scherf et al.
# Submitted via: dBpowerAMP V12.0
#
DISCID=6e0fe519
DTITLE=Bob Wills - Texas, Hollywood And Chicago 1940-1947, CD01 - CD04
DYEAR=2011
DGENRE=Country
TTITLE0=Blue Bonnet Rag
TTITLE1=Time Changes Everything
TTITLE2=Medley Of Spanish Waltzes
TTITLE3=Bob Wills Special
TTITLE4=Big Beaver
TTITLE5=New San Antonio Rose
TTITLE6=Lyla Lou
TTITLE7=New Worried Mind
TTITLE8=Maiden's Prayer
TTITLE9=Oh! You Pretty Woman
TTITLE10=I Knew The Moment I Lost YOu
TTITLE11=Done And Gone
TTITLE12=Twin Guitar Special
TTITLE13=Take Me Back To Tulsa
TTITLE14=Takin' It Home
TTITLE15=Blue Bonnet Lane
TTITLE16=Bob Wills Stomp
TTITLE17=Li'l Liza Jane
TTITLE18=Please Don't Leave Me
TTITLE19=Cherokee Maiden
TTITLE20=Ride On (My Prairie Pinto)
TTITLE21=Got A Letter From My Kid Today
TTITLE22=It's All Your Fault
TTITLE23=Goodnight Little Sweetheart
TTITLE24=Dusty Skies
EXTD=
EXTT0=
EXTT1=
EXTT2=
EXTT3=
EXTT4=
EXTT5=
EXTT6=
EXTT7=
EXTT8=
EXTT9=
EXTT10=
EXTT11=
EXTT12=
EXTT13=
EXTT14=
EXTT15=
EXTT16=
EXTT17=
EXTT18=
EXTT19=
EXTT20=
EXTT21=
EXTT22=
EXTT23=
EXTT24=
PLAYORDER=
